<?xml version="1.0" encoding="utf-8"?>
<!-- Generator: Adobe Illustrator 16.0.0, SVG Export Plug-In . SVG Version: 6.00 Build 0)  -->
<!DOCTYPE svg PUBLIC "-//W3C//DTD SVG 1.1//EN" "http://www.w3.org/Graphics/SVG/1.1/DTD/svg11.dtd">
<svg version="1.1" id="Layer_1" xmlns="http://www.w3.org/2000/svg" xmlns:xlink="http://www.w3.org/1999/xlink" x="0px" y="0px"
	 width="216px" height="108px" viewBox="0 0 216 108" enable-background="new 0 0 216 108" xml:space="preserve">
<rect x="0" y="-54" display="none" width="216" height="216"/>
<g>
	<g>
		<path fill="#FFFFFF" d="M20.892,87.721c0-0.455,0.398-0.855,0.91-0.855c0.456,0,0.854,0.4,0.854,0.855
			c0,1.137,0.91,2.104,2.104,2.104c1.138,0,2.048-0.855,2.105-1.936l-5.858-14.33c-0.057-0.113-0.114-0.229-0.114-0.342
			c0-2.104,1.764-3.867,3.867-3.867c2.105,0,3.868,1.764,3.868,3.867c0,0.455-0.398,0.852-0.91,0.852
			c-0.455,0-0.853-0.396-0.853-0.852c0-1.195-0.967-2.104-2.105-2.104c-1.137,0-2.047,0.852-2.104,1.932l5.858,14.332
			c0.057,0.115,0.114,0.229,0.114,0.344c0,2.104-1.763,3.809-3.868,3.809C22.655,91.529,20.892,89.824,20.892,87.721z"/>
		<path fill="#FFFFFF" d="M34.315,87.721V73.217c0-2.104,1.707-3.867,3.81-3.867c2.162,0,3.868,1.764,3.868,3.867
			c0,0.455-0.398,0.852-0.853,0.852c-0.512,0-0.91-0.396-0.91-0.852c0-1.195-0.91-2.104-2.105-2.104
			c-1.137,0-2.104,0.908-2.104,2.104v14.504c0,1.137,0.967,2.104,2.104,2.104c1.195,0,2.105-0.967,2.105-2.104
			c0-0.512,0.398-0.855,0.91-0.855c0.455,0,0.853,0.344,0.853,0.855c0,2.104-1.706,3.809-3.868,3.809
			C36.022,91.529,34.315,89.824,34.315,87.721z"/>
		<path fill="#FFFFFF" d="M47.74,90.676V73.217c0-2.104,1.707-3.867,3.81-3.867c2.162,0,3.868,1.764,3.868,3.867
			c0,0.455-0.398,0.852-0.853,0.852c-0.512,0-0.853-0.396-0.853-0.852c0-1.195-0.967-2.104-2.162-2.104
			c-1.137,0-2.104,0.908-2.104,2.104v17.459c0,0.514-0.341,0.854-0.854,0.854C48.138,91.529,47.74,91.189,47.74,90.676z"/>
		<path fill="#FFFFFF" d="M61.959,62.865v2.957c0,0.455-0.398,0.855-0.853,0.855c-0.455,0-0.853-0.4-0.853-0.855v-2.957
			c0-0.455,0.398-0.852,0.853-0.852C61.561,62.014,61.959,62.41,61.959,62.865z M61.959,70.201v20.475
			c0,0.514-0.398,0.854-0.853,0.854c-0.455,0-0.853-0.34-0.853-0.854V70.201c0-0.455,0.398-0.852,0.853-0.852
			C61.561,69.35,61.959,69.746,61.959,70.201z"/>
		<path fill="#FFFFFF" d="M67.647,100.914V73.217c0-2.162,1.706-3.867,3.81-3.867c2.162,0,3.868,1.705,3.868,3.867v14.504
			c0,2.104-1.706,3.809-3.868,3.809c-0.739,0-1.478-0.227-2.104-0.625v10.01c0,0.455-0.341,0.854-0.853,0.854
			C68.045,101.768,67.647,101.369,67.647,100.914z M71.458,89.824c1.195,0,2.162-0.967,2.162-2.104V73.217
			c0-1.195-0.967-2.104-2.162-2.104c-1.137,0-2.104,0.908-2.104,2.104v14.504C69.354,88.857,70.32,89.824,71.458,89.824z"/>
		<path fill="#FFFFFF" d="M87.611,90.676c0,0.514-0.398,0.854-0.91,0.854c-2.104,0-3.81-1.705-3.81-3.809V77.598v-4.381v-2.104
			h-2.104c-0.512,0-0.91-0.398-0.91-0.912c0-0.455,0.398-0.852,0.91-0.852h2.104V49.785c0-0.513,0.398-0.912,0.853-0.912
			s0.853,0.399,0.853,0.912V69.35h2.104c0.512,0,0.853,0.396,0.853,0.852c0,0.514-0.341,0.912-0.853,0.912h-2.104v2.104v4.381
			v10.123c0,1.137,0.967,2.104,2.104,2.104C87.213,89.824,87.611,90.221,87.611,90.676z"/>
		<path fill="#FFFFFF" d="M92.504,87.721v-17.52c0-0.455,0.398-0.852,0.853-0.852c0.455,0,0.853,0.396,0.853,0.852v17.52
			c0,1.137,0.967,2.104,2.104,2.104c1.194,0,2.104-0.967,2.104-2.104v-17.52c0-0.455,0.398-0.852,0.91-0.852
			c0.455,0,0.853,0.396,0.853,0.852v17.52c0,2.104-1.707,3.809-3.868,3.809C94.21,91.529,92.504,89.824,92.504,87.721z"/>
		<path fill="#FFFFFF" d="M119.521,73.217v17.459c0,0.514-0.399,0.854-0.854,0.854c-0.512,0-0.909-0.34-0.909-0.854V73.217
			c0-1.195-0.911-2.104-2.104-2.104c-1.139,0-2.104,0.908-2.104,2.104v17.459c0,0.514-0.398,0.854-0.854,0.854
			c-0.513,0-0.853-0.34-0.853-0.854V73.217c0-1.195-0.968-2.104-2.161-2.104c-1.138,0-2.104,0.908-2.104,2.104v17.459
			c0,0.514-0.398,0.854-0.853,0.854s-0.853-0.34-0.853-0.854V73.217c0-2.104,1.706-3.867,3.811-3.867
			c1.251,0,2.273,0.568,3.014,1.42c0.684-0.852,1.764-1.42,2.959-1.42C117.758,69.35,119.521,71.113,119.521,73.217z"/>
	</g>
	<g>
		<path fill="#FFFFFF" d="M20.892,58.271V30.573c0-2.16,1.707-3.868,3.811-3.868c2.161,0,3.867,1.708,3.867,3.868v14.503
			c0,2.104-1.706,3.811-3.867,3.811c-0.74,0-1.479-0.227-2.104-0.627v10.012c0,0.453-0.341,0.854-0.853,0.854
			C21.291,59.125,20.892,58.725,20.892,58.271z M24.703,47.181c1.194,0,2.161-0.968,2.161-2.104V30.573
			c0-1.194-0.967-2.104-2.161-2.104c-1.138,0-2.104,0.91-2.104,2.104v14.503C22.599,46.213,23.565,47.181,24.703,47.181z"/>
		<path fill="#FFFFFF" d="M34.259,45.076V30.573c0-2.104,1.706-3.868,3.867-3.868c2.105,0,3.812,1.764,3.812,3.868v14.503
			c0,2.104-1.707,3.811-3.812,3.811C35.965,48.887,34.259,47.181,34.259,45.076z M35.965,30.573v14.503
			c0,1.137,0.967,2.104,2.161,2.104c1.138,0,2.105-0.968,2.105-2.104V30.573c0-1.194-0.967-2.104-2.105-2.104
			C36.932,28.469,35.965,29.379,35.965,30.573z"/>
		<path fill="#FFFFFF" d="M47.626,45.076c0-0.456,0.398-0.853,0.91-0.853c0.455,0,0.853,0.397,0.853,0.853
			c0,1.137,0.91,2.104,2.104,2.104c1.138,0,2.048-0.853,2.104-1.933L47.74,30.915c-0.057-0.114-0.114-0.228-0.114-0.342
			c0-2.104,1.763-3.868,3.867-3.868c2.104,0,3.868,1.764,3.868,3.868c0,0.456-0.398,0.853-0.911,0.853
			c-0.455,0-0.853-0.396-0.853-0.853c0-1.194-0.967-2.104-2.104-2.104c-1.137,0-2.047,0.853-2.104,1.934l5.858,14.333
			c0.057,0.111,0.114,0.227,0.114,0.34c0,2.104-1.764,3.811-3.868,3.811C49.389,48.887,47.626,47.181,47.626,45.076z"/>
		<path fill="#FFFFFF" d="M67.647,48.033c0,0.512-0.398,0.854-0.91,0.854c-2.104,0-3.811-1.706-3.811-3.811V34.953v-4.38v-2.104
			h-2.104c-0.512,0-0.911-0.398-0.911-0.91c0-0.455,0.398-0.854,0.911-0.854h2.104V7.141c0-0.512,0.398-0.91,0.853-0.91
			c0.455,0,0.853,0.398,0.853,0.91v19.564h2.104c0.512,0,0.853,0.399,0.853,0.854c0,0.512-0.341,0.91-0.853,0.91h-2.104v2.104v4.38
			v10.123c0,1.137,0.967,2.104,2.104,2.104C67.249,47.181,67.647,47.58,67.647,48.033z"/>
	</g>
	<path fill="#FFFFFF" d="M1.417,81.107c-0.304,0-0.551-0.375-0.551-0.84l0,0c0-0.465,0.247-0.84,0.551-0.84h12.328
		c0.304,0,0.551,0.375,0.551,0.84l0,0c0,0.465-0.247,0.84-0.551,0.84H1.417z"/>
	<g>
		<path fill="#FFFFFF" d="M143.568,74.564l-1.065-2.137h-0.961v2.137h-0.771v-5.07h1.966c0.961,0,1.574,0.621,1.574,1.482
			c0,0.725-0.441,1.189-1.013,1.346l1.167,2.242H143.568z M142.681,70.188h-1.139v1.586h1.139c0.513,0,0.86-0.293,0.86-0.789
			C143.541,70.486,143.193,70.188,142.681,70.188z"/>
		<path fill="#FFFFFF" d="M145.429,74.564v-5.07h3.238v0.693h-2.468v1.479h2.106v0.684h-2.106v1.525h2.468v0.689H145.429z"/>
		<path fill="#FFFFFF" d="M151.354,74.564h-0.597l-1.667-5.07h0.799l1.167,3.689l1.167-3.689h0.812L151.354,74.564z"/>
		<path fill="#FFFFFF" d="M155.463,74.607c-1.031,0-1.815-0.705-1.815-1.752v-3.361h0.771v3.326c0,0.676,0.413,1.096,1.045,1.096
			c0.635,0,1.056-0.42,1.056-1.096v-3.326h0.767v3.361C157.285,73.902,156.497,74.607,155.463,74.607z"/>
		<path fill="#FFFFFF" d="M158.527,74.564v-5.07h3.239v0.693h-2.471v1.479h2.106v0.684h-2.106v1.525h2.471v0.689H158.527z"/>
		<path fill="#FFFFFF" d="M167.611,74.088c-0.321,0.32-0.785,0.477-1.311,0.477h-1.78v-5.07h1.78c0.525,0,0.989,0.158,1.311,0.479
			c0.547,0.549,0.512,1.287,0.512,2.021S168.158,73.539,167.611,74.088z M167.083,70.527c-0.214-0.234-0.498-0.34-0.859-0.34h-0.933
			v3.688h0.933c0.361,0,0.646-0.109,0.859-0.344c0.266-0.291,0.272-0.838,0.272-1.537S167.349,70.82,167.083,70.527z"/>
		<path fill="#FFFFFF" d="M169.258,74.564v-5.07h3.238v0.693h-2.471v1.479h2.106v0.684h-2.106v1.525h2.471v0.689H169.258z"/>
		<path fill="#FFFFFF" d="M178.047,74.564l-1.067-2.137h-0.961v2.137h-0.769v-5.07h1.964c0.963,0,1.573,0.621,1.573,1.482
			c0,0.725-0.441,1.189-1.01,1.346l1.167,2.242H178.047z M177.157,70.188h-1.139v1.586h1.139c0.513,0,0.862-0.293,0.862-0.789
			C178.02,70.486,177.67,70.188,177.157,70.188z"/>
		<path fill="#FFFFFF" d="M179.907,74.564v-5.07h3.238v0.693h-2.468v1.479h2.106v0.684h-2.106v1.525h2.468v0.689H179.907z"/>
		<path fill="#FFFFFF" d="M185.832,74.607c-0.526,0-0.981-0.193-1.332-0.541c-0.497-0.5-0.49-1.061-0.49-2.035
			c0-0.977-0.007-1.539,0.49-2.037c0.351-0.35,0.806-0.541,1.332-0.541c0.933,0,1.629,0.549,1.809,1.559h-0.784
			c-0.12-0.512-0.463-0.869-1.024-0.869c-0.298,0-0.57,0.115-0.747,0.309c-0.251,0.27-0.308,0.561-0.308,1.58
			c0,1.016,0.057,1.309,0.308,1.58c0.177,0.189,0.449,0.305,0.747,0.305c0.562,0,0.911-0.355,1.03-0.869h0.778
			C187.469,74.059,186.751,74.607,185.832,74.607z"/>
		<path fill="#FFFFFF" d="M191.486,74.564V72.35h-2.057v2.215h-0.771v-5.07h0.771v2.166h2.057v-2.166h0.769v5.07H191.486z"/>
		<path fill="#FFFFFF" d="M193.575,74.564v-5.07h3.238v0.693h-2.472v1.479h2.106v0.684h-2.106v1.525h2.472v0.689H193.575z"/>
		<path fill="#FFFFFF" d="M200.657,74.564l-1.066-2.137h-0.96v2.137h-0.771v-5.07h1.966c0.96,0,1.572,0.621,1.572,1.482
			c0,0.725-0.44,1.189-1.011,1.346l1.167,2.242H200.657z M199.77,70.188h-1.139v1.586h1.139c0.512,0,0.86-0.293,0.86-0.789
			C200.63,70.486,200.281,70.188,199.77,70.188z"/>
		<path fill="#FFFFFF" d="M204.156,74.607c-0.526,0-0.981-0.193-1.332-0.541c-0.497-0.5-0.49-1.061-0.49-2.035
			c0-0.977-0.007-1.539,0.49-2.037c0.351-0.35,0.806-0.541,1.332-0.541c0.933,0,1.63,0.549,1.808,1.559h-0.784
			c-0.119-0.512-0.462-0.869-1.023-0.869c-0.299,0-0.571,0.115-0.747,0.309c-0.251,0.27-0.308,0.561-0.308,1.58
			c0,1.016,0.057,1.309,0.308,1.58c0.176,0.189,0.448,0.305,0.747,0.305c0.562,0,0.911-0.355,1.031-0.869h0.776
			C205.793,74.059,205.074,74.607,204.156,74.607z"/>
		<path fill="#FFFFFF" d="M209.811,74.564V72.35h-2.057v2.215h-0.77v-5.07h0.77v2.166h2.057v-2.166h0.769v5.07H209.811z"/>
		<path fill="#FFFFFF" d="M211.896,74.564v-5.07h3.238v0.693h-2.468v1.479h2.106v0.684h-2.106v1.525h2.468v0.689H211.896z"/>
		<path fill="#FFFFFF" d="M140.771,82.939v-5.07h0.771v5.07H140.771z"/>
		<path fill="#FFFFFF" d="M145.974,82.939l-2.341-3.568v3.568h-0.771v-5.07h0.704l2.344,3.561v-3.561h0.769v5.07H145.974z"/>
		<path fill="#FFFFFF" d="M149.712,78.562v4.377h-0.771v-4.377h-1.395v-0.693h3.56v0.693H149.712z"/>
		<path fill="#FFFFFF" d="M151.979,82.939v-5.07h3.238v0.693h-2.469v1.479h2.106v0.684h-2.106v1.523h2.469v0.691H151.979z"/>
		<path fill="#FFFFFF" d="M159.063,82.939l-1.068-2.137h-0.961v2.137h-0.768v-5.07h1.963c0.963,0,1.573,0.619,1.573,1.482
			c0,0.725-0.44,1.188-1.01,1.346l1.168,2.242H159.063z M158.173,78.562h-1.139v1.584h1.139c0.513,0,0.862-0.291,0.862-0.789
			S158.686,78.562,158.173,78.562z"/>
		<path fill="#FFFFFF" d="M164.012,82.461c-0.319,0.32-0.782,0.479-1.311,0.479h-1.778v-5.07h1.778c0.528,0,0.991,0.156,1.311,0.479
			c0.549,0.547,0.512,1.287,0.512,2.02C164.523,81.102,164.561,81.912,164.012,82.461z M163.485,78.902
			c-0.214-0.234-0.498-0.34-0.862-0.34h-0.932v3.686h0.932c0.364,0,0.648-0.107,0.862-0.342c0.263-0.291,0.27-0.84,0.27-1.539
			C163.755,79.67,163.748,79.193,163.485,78.902z"/>
		<path fill="#FFFFFF" d="M165.658,82.939v-5.07h0.77v5.07H165.658z"/>
		<path fill="#FFFFFF" d="M169.096,82.982c-0.764,0-1.311-0.18-1.794-0.67l0.512-0.506c0.37,0.369,0.774,0.484,1.296,0.484
			c0.662,0,1.046-0.283,1.046-0.777c0-0.219-0.064-0.404-0.2-0.527c-0.127-0.119-0.256-0.17-0.555-0.213l-0.599-0.084
			c-0.413-0.057-0.739-0.199-0.96-0.406c-0.249-0.234-0.372-0.555-0.372-0.967c0-0.885,0.642-1.49,1.696-1.49
			c0.669,0,1.14,0.172,1.573,0.578l-0.49,0.484c-0.315-0.299-0.677-0.393-1.104-0.393c-0.599,0-0.926,0.344-0.926,0.791
			c0,0.186,0.057,0.348,0.193,0.469c0.127,0.113,0.333,0.201,0.568,0.236l0.578,0.084c0.47,0.07,0.731,0.186,0.946,0.379
			c0.276,0.242,0.413,0.602,0.413,1.037C170.918,82.424,170.155,82.982,169.096,82.982z"/>
		<path fill="#FFFFFF" d="M173.58,82.982c-0.524,0-0.98-0.193-1.328-0.541c-0.501-0.5-0.493-1.062-0.493-2.035
			c0-0.979-0.008-1.539,0.493-2.037c0.348-0.35,0.804-0.543,1.328-0.543c0.933,0,1.633,0.549,1.809,1.561h-0.782
			c-0.121-0.512-0.462-0.869-1.026-0.869c-0.298,0-0.567,0.115-0.746,0.307c-0.249,0.271-0.305,0.562-0.305,1.582
			c0,1.016,0.056,1.307,0.305,1.58c0.179,0.189,0.448,0.305,0.746,0.305c0.564,0,0.911-0.357,1.034-0.869h0.774
			C175.221,82.434,174.499,82.982,173.58,82.982z"/>
		<path fill="#FFFFFF" d="M176.408,82.939v-5.07h0.771v5.07H176.408z"/>
		<path fill="#FFFFFF" d="M180.422,80.945h-1.154v1.994h-0.767v-5.07h1.921c0.988,0,1.623,0.654,1.623,1.537
			C182.045,80.291,181.41,80.945,180.422,80.945z M180.379,78.562h-1.111v1.686h1.111c0.533,0,0.897-0.305,0.897-0.842
			C181.276,78.875,180.912,78.562,180.379,78.562z"/>
		<path fill="#FFFFFF" d="M182.972,82.939v-5.07h0.771v4.379h2.439v0.691H182.972z"/>
		<path fill="#FFFFFF" d="M187.054,82.939v-5.07h0.77v5.07H187.054z"/>
		<path fill="#FFFFFF" d="M192.255,82.939l-2.342-3.568v3.568h-0.77v-5.07h0.704l2.344,3.561v-3.561h0.768v5.07H192.255z"/>
		<path fill="#FFFFFF" d="M197.189,82.939l-0.351-1.02h-1.998l-0.351,1.02h-0.817l1.858-5.07h0.617l1.86,5.07H197.189z
			 M195.857,79.018l-0.79,2.246h1.559L195.857,79.018z"/>
		<path fill="#FFFFFF" d="M198.723,82.939v-5.07h0.768v5.07H198.723z"/>
		<path fill="#FFFFFF" d="M203.608,82.939l-1.067-2.137h-0.961v2.137h-0.769v-5.07h1.964c0.963,0,1.573,0.619,1.573,1.482
			c0,0.725-0.441,1.188-1.01,1.346l1.167,2.242H203.608z M202.719,78.562h-1.139v1.584h1.139c0.513,0,0.862-0.291,0.862-0.789
			S203.231,78.562,202.719,78.562z"/>
		<path fill="#FFFFFF" d="M205.469,82.939v-5.07h3.239v0.693h-2.471v1.479h2.106v0.684h-2.106v1.523h2.471v0.691H205.469z"/>
		<path fill="#FFFFFF" d="M140.771,91.314v-5.072h3.239v0.693h-2.469v1.48h2.106v0.682h-2.106v1.525h2.469v0.691H140.771z"/>
		<path fill="#FFFFFF" d="M148.171,91.314l-2.341-3.568v3.568h-0.77v-5.072h0.704l2.344,3.561v-3.561h0.769v5.072H148.171z"/>
		<path fill="#FFFFFF" d="M153.615,86.936v4.379h-0.768v-4.379h-1.396v-0.693h3.559v0.693H153.615z"/>
		<path fill="#FFFFFF" d="M155.881,91.314v-5.072h3.239v0.693h-2.469v1.48h2.106v0.682h-2.106v1.525h2.469v0.691H155.881z"/>
		<path fill="#FFFFFF" d="M162.66,91.314l-1.104-1.945l-1.097,1.945h-0.88l1.564-2.6l-1.466-2.473h0.883l0.995,1.816l1.006-1.816
			h0.884l-1.469,2.473l1.574,2.6H162.66z"/>
		<path fill="#FFFFFF" d="M165.995,86.936v4.379h-0.77v-4.379h-1.396v-0.693h3.561v0.693H165.995z"/>
		<path fill="#FFFFFF" d="M168.262,91.314v-5.072h3.238v0.693h-2.47v1.48h2.106v0.682h-2.106v1.525h2.47v0.691H168.262z"/>
		<path fill="#FFFFFF" d="M174.255,91.314v-5.072h3.238v0.693h-2.468v1.48h2.106v0.682h-2.106v1.525h2.468v0.691H174.255z"/>
		<path fill="#FFFFFF" d="M180.257,86.936v4.379h-0.768v-4.379h-1.396v-0.693h3.559v0.693H180.257z"/>
		<path fill="#FFFFFF" d="M187.932,91.314v-3.391l-1.167,2.471h-0.569l-1.194-2.471v3.391h-0.771v-5.072h0.771l1.479,3.154
			l1.451-3.154h0.77v5.072H187.932z"/>
		<path fill="#FFFFFF" d="M190.012,91.314v-5.072h3.238v0.693h-2.47v1.48h2.106v0.682h-2.106v1.525h2.47v0.691H190.012z
			 M191.74,85.752h-0.547l0.533-1.152h0.806L191.74,85.752z"/>
		<path fill="#FFFFFF" d="M197.389,90.836c-0.322,0.32-0.784,0.479-1.311,0.479h-1.78v-5.072h1.78c0.526,0,0.988,0.158,1.311,0.48
			c0.547,0.547,0.511,1.285,0.511,2.02S197.936,90.287,197.389,90.836z M196.86,87.277c-0.215-0.236-0.498-0.342-0.86-0.342h-0.933
			v3.688H196c0.362,0,0.646-0.109,0.86-0.344c0.265-0.291,0.272-0.838,0.272-1.537C197.133,88.045,197.125,87.568,196.86,87.277z"/>
		<path fill="#FFFFFF" d="M199.034,91.314v-5.072h0.769v5.072H199.034z"/>
		<path fill="#FFFFFF" d="M204.037,91.314l-0.351-1.02h-1.998l-0.351,1.02h-0.817l1.858-5.072h0.617l1.86,5.072H204.037z
			 M202.705,87.393l-0.789,2.246h1.558L202.705,87.393z"/>
		<path fill="#FFFFFF" d="M206.914,91.355c-0.763,0-1.311-0.178-1.795-0.67l0.512-0.504c0.371,0.367,0.777,0.482,1.297,0.482
			c0.661,0,1.047-0.283,1.047-0.775c0-0.219-0.065-0.404-0.2-0.527c-0.129-0.119-0.256-0.172-0.556-0.213l-0.597-0.086
			c-0.414-0.055-0.74-0.199-0.96-0.404c-0.252-0.236-0.371-0.555-0.371-0.969c0-0.883,0.641-1.488,1.693-1.488
			c0.669,0,1.139,0.17,1.572,0.578l-0.49,0.484c-0.312-0.299-0.677-0.395-1.104-0.395c-0.597,0-0.926,0.344-0.926,0.793
			c0,0.184,0.056,0.346,0.192,0.469c0.129,0.113,0.336,0.199,0.571,0.234l0.575,0.086c0.47,0.07,0.732,0.186,0.946,0.377
			c0.277,0.242,0.413,0.604,0.413,1.039C208.735,90.799,207.975,91.355,206.914,91.355z"/>
	</g>
</g>
</svg>
